<?xml version="1.0" standalone="no"?>
<!DOCTYPE svg PUBLIC "-//W3C//DTD SVG 1.1//EN" "http://www.w3.org/Graphics/SVG/1.1/DTD/svg11.dtd" >
<!--
2013-9-30: Created.
-->
<svg>
<metadata>
Created by iconfont
</metadata>
<defs>

<font id="iconfont" horiz-adv-x="1024" >
  <font-face
    font-family="iconfont"
    font-weight="500"
    font-stretch="normal"
    units-per-em="1024"
    ascent="896"
    descent="-128"
  />
    <missing-glyph />
    
    <glyph glyph-name="gender" unicode="&#59025;" d="M730 816c118.188 0 214-95.812 214-214 0-105.184-75.888-192.648-175.9-210.62l0.196-71.38H908v-80h-139.484l0.792-288-80-0.22L688.52 240H556v80h132.296l-0.196 72.1c-94.768 18.812-167.008 100.204-171.84 199.3l-54.12-54.112-123.124 123.128 1.444-276.548c100.072-19.76 175.54-108 175.54-213.868 0-120.4-97.6-218-218-218S80 49.6 80 170c0 107.74 78.16 197.224 180.864 214.848l-1.44 277.152-124.712-124.712-56.568 56.568 220.28 220.288 217.644-217.652A218.096 218.096 0 0 0 516 602c0 118.188 95.812 214 214 214z m-432-508C221.784 308 160 246.216 160 170c0-76.216 61.784-138 138-138 76.216 0 138 61.784 138 138 0 76.216-61.784 138-138 138z m432 428C655.992 736 596 676.008 596 602c0-74.008 59.992-134 134-134 74.008 0 134 59.992 134 134 0 74.008-59.992 134-134 134z"  horiz-adv-x="1024" />

    
    <glyph glyph-name="female" unicode="&#59026;" d="M512 816c143.596 0 260-116.404 260-260 0-129.784-95.096-237.36-219.408-256.852l0.324-115.288h127.684v-80h-127.456l0.44-152.888-80-0.228-0.44 153.116H344.6v80h128.316l-0.328 115.108C347.696 317.96 252 425.8 252 556c0 143.596 116.404 260 260 260z m0-80c-99.412 0-180-80.588-180-180s80.588-180 180-180 180 80.588 180 180-80.588 180-180 180z"  horiz-adv-x="1024" />

    
    <glyph glyph-name="vue" unicode="&#59027;" d="M944 736L512 32 80 736h356l76-120 76 120h356zM315.584 656H222.952l289.044-471.04L801.044 656h-92.632L512 340.7 315.584 656z"  horiz-adv-x="1024" />

    
    <glyph glyph-name="flutter" unicode="&#59028;" d="M581.268 412.216v-0.04H800l-190.488-190.088L799.928 32H581.16l-189.888 189.384 189.996 190.832zM799.328 736L336.976 275.456 228 383.984 581.48 736h217.848z"  horiz-adv-x="1024" />

    
    <glyph glyph-name="male" unicode="&#59029;" d="M510.428 814.144l40.572-40.576 1.54 0.004 0.008-1.552 146.16-146.16-56.564-56.572-88.98 88.976 1.028-189.672C677.72 448.432 772 341.228 772 212c0-143.596-116.404-260-260-260s-260 116.404-260 260c0 130.752 96.516 238.96 222.188 257.272l-1.056 194.44-94.42-94.424-56.568 56.568 188.28 188.288zM512 392c-99.412 0-180-80.588-180-180s80.588-180 180-180 180 80.588 180 180-80.588 180-180 180z"  horiz-adv-x="1024" />

    
    <glyph glyph-name="react" unicode="&#59030;" d="M728 758.12c54.648-31.548 71.824-114.36 54.264-218.084C880.872 503.38 944 447.104 944 384s-63.128-119.38-161.74-156.04c17.564-103.72 0.388-186.532-54.26-218.08-54.648-31.556-134.952-5.024-216 62.048-81.052-67.072-161.352-93.6-216-62.052-54.648 31.552-71.824 114.36-54.264 218.088C143.128 264.62 80 320.896 80 384s63.128 119.38 161.74 156.04C224.176 643.76 241.352 726.568 296 758.12c54.648 31.556 134.952 5.024 216-62.048 81.052 67.072 161.352 93.6 216 62.052zM319.088 205l-0.416-2.916a396.736 396.736 0 0 1-2.204-19.108c-3.012-33.332-0.872-60.976 5.348-80.604 4.304-13.572 9.276-20.38 14.184-23.212 4.908-2.836 13.288-3.74 27.196-0.68 20.108 4.428 45.116 16.4 72.48 35.672a400.68 400.68 0 0 1 17.76 13.28c-18.036 19.32-35.8 40.488-53.016 63.3-28.364 3.504-55.58 8.308-81.332 14.268z m385.824 0l-0.356-0.08c-25.644-5.924-52.74-10.7-80.976-14.184-17.212-22.816-34.98-43.984-53.016-63.304a400.1 400.1 0 0 1 17.76-13.28c27.364-19.272 52.372-31.24 72.48-35.668 13.908-3.064 22.288-2.16 27.196 0.676 4.908 2.832 9.88 9.64 14.184 23.212 6.22 19.628 8.36 47.272 5.348 80.6a400.68 400.68 0 0 1-2.62 22.032zM512 181.916l1.948 2.092h-3.896l1.948-2.092zM512 504c-23.016 0-45.664-0.916-67.728-2.68a848.456 848.456 0 0 1-36.196-57.32 849.772 849.772 0 0 1-31.544-60 850.06 850.06 0 0 1 31.544-60 849.772 849.772 0 0 1 36.192-57.32c22.068-1.764 44.72-2.68 67.732-2.68 23.016 0 45.664 0.916 67.728 2.68a848.44 848.44 0 0 1 36.196 57.32 849.772 849.772 0 0 1 31.544 60 850.06 850.06 0 0 1-31.544 60 849.776 849.776 0 0 1-36.192 57.32C557.664 503.08 535.012 504 512 504z m175.012-221.044l-0.84 2.728-1.94-3.364 2.78 0.636z m-349.188 2.728l-0.84-2.728 2.784-0.64-1.944 3.368z m425.652 175.88l-0.108-0.344c-7.692-25.172-17.108-51.028-28.204-77.22 11.148-26.32 20.6-52.288 28.312-77.568a400.912 400.912 0 0 1 20.384 8.744c30.372 14.06 53.24 29.732 67.128 44.936 9.604 10.512 13.012 18.22 13.012 23.888 0 5.668-3.408 13.376-13.012 23.888-13.888 15.204-36.76 30.876-67.128 44.936a400.68 400.68 0 0 1-20.384 8.744z m-502.948 0l-0.532-0.208a399.92 399.92 0 0 1-19.856-8.532c-30.372-14.06-53.24-29.732-67.128-44.936C163.408 397.376 160 389.668 160 384c0-5.668 3.408-13.376 13.012-23.888 13.888-15.204 36.76-30.876 67.128-44.936a400.68 400.68 0 0 1 20.384-8.744c7.716 25.28 17.16 51.252 28.312 77.564-11.148 26.32-20.596 52.288-28.308 77.568zM512 424c22.092 0 40-17.908 40-40s-17.908-40-40-40-40 17.908-40 40 17.908 40 40 40z m-172.228 61.68l-2.788-0.636 0.84-2.732 0.972 1.688 0.976 1.68z m347.24-0.636l-2.784 0.64 1.944-3.372 0.84 2.732z m-26.208 204.472c-20.108-4.424-45.116-16.396-72.48-35.668a400.68 400.68 0 0 1-17.76-13.28c18.036-19.32 35.804-40.492 53.02-63.304 28.36-3.5 55.58-8.304 81.328-14.264 1.096 7.488 1.972 14.84 2.62 22.024 3.012 33.332 0.872 60.976-5.348 80.604-4.304 13.572-9.276 20.38-14.184 23.212-4.908 2.836-13.288 3.74-27.196 0.68zM336 688.84c-4.908-2.832-9.88-9.64-14.184-23.212-6.22-19.628-8.36-47.272-5.348-80.6 0.648-7.192 1.52-14.54 2.62-22.028 25.748 5.96 52.964 10.76 81.328 14.264 17.216 22.812 34.984 43.98 53.02 63.304a400.1 400.1 0 0 1-17.76 13.28c-27.364 19.272-52.372 31.24-72.48 35.668-13.908 3.064-22.288 2.16-27.196-0.676zM513.948 584l-1.944 2.092-1.952-2.092L512 584l1.948-0.004z"  horiz-adv-x="1024" />

    
    <glyph glyph-name="arrow-down" unicode="&#59023;" d="M551.144 737.86v-550.712l254 253.996 56.568-56.572-350.284-350.28-350.284 350.28 56.568 56.572 253.432-253.428V737.86z"  horiz-adv-x="1024" />

    
    <glyph glyph-name="arrow-up" unicode="&#59024;" d="M511.428 733.144l350.28-350.288-56.564-56.568-254 254v-548.432h-80V579.72l-253.432-253.432-56.568 56.568z"  horiz-adv-x="1024" />

    
    <glyph glyph-name="arrow-left" unicode="&#59021;" d="M510.284 736l56.568-56.568-255.724-255.728 555.16-1.992-0.288-80-550.836 1.98L566.852 92l-56.568-56.568L160 385.712z"  horiz-adv-x="1024" />

    
    <glyph glyph-name="arrow-right" unicode="&#59022;" d="M512.892 736l352.28-352.284-352.28-352.284L456 88.32l253.704 253.708L160 344l0.288 80 552.796-1.98L456 679.108z"  horiz-adv-x="1024" />

    
    <glyph glyph-name="setting" unicode="&#59019;" d="M602 816l18.424-97.016a349.796 349.796 0 0 0 51.824-21.492l82.168 57.032 127.28-127.28-56.336-82.74a349.82 349.82 0 0 0 21.12-50.528L946 476v-180l-98.46-18.696a349.776 349.776 0 0 0-22.18-53.808l56.336-82.74-127.28-127.28-82.168 57.032a349.796 349.796 0 0 0-51.82-21.492L602-48h-180l-17.468 96.708a349.8 349.8 0 0 0-53.572 22.208L270.76 16.304l-127.28 127.28 55.292 79.66a349.768 349.768 0 0 0-22.56 54.868L82 296v180l95.268 17.208a349.816 349.816 0 0 0 21.5 51.548L143.48 624.416l127.28 127.28L350.96 697.08a349.8 349.8 0 0 0 53.572 22.208L422 816h180z m-66.24-79.996h-46.916l-14.128-78.24-45.784-14.66a269.708 269.708 0 0 1-37.688-15.292l-3.632-1.84-42.32-21.808L280.48 648.288l-33.172-33.168 44.576-64.22-21.976-42.728a269.88 269.88 0 0 1-15.34-36.04l-1.24-3.72-14.816-45.44L162 409.16v-46.916l76.132-14.456 14.376-45.632a269.688 269.688 0 0 1 15.68-38.916l1.724-3.408 21.976-42.728-44.576-64.216 33.172-33.168 64.808 44.12 42.32-21.812a269.864 269.864 0 0 1 37.448-15.856l3.872-1.272 45.784-14.664 14.124-78.228h46.924l14.92 78.536 45.124 14.592a269.712 269.712 0 0 1 36.452 14.812l3.52 1.768 42.688 21.864 66.648-46.26 33.172 33.172-45.8 67.26 21.7 42.276a269.844 269.844 0 0 1 15.84 37.612l1.268 3.888 14.444 45.472 80.26 15.244v46.916l-80.64 14.564-14.88 45.28a269.732 269.732 0 0 1-14.392 35.2l-1.9 3.776-21.7 42.276 45.8 67.264-33.172 33.172-66.648-46.264-42.688 21.864a269.864 269.864 0 0 1-36.232 15.34l-3.744 1.24-45.128 14.596L535.76 736zM512 584c110.456 0 200-89.544 200-200s-89.544-200-200-200-200 89.544-200 200 89.544 200 200 200z m0-80c-66.276 0-120-53.724-120-120 0-66.276 53.724-120 120-120 66.276 0 120 53.724 120 120 0 66.276-53.724 120-120 120z"  horiz-adv-x="1024" />

    
    <glyph glyph-name="setting-fill" unicode="&#59020;" d="M602 816l18.424-97.016a349.796 349.796 0 0 0 51.824-21.492l82.168 57.032 127.28-127.28-56.336-82.74a349.82 349.82 0 0 0 21.12-50.528L946 476v-180l-98.46-18.696a349.776 349.776 0 0 0-22.18-53.808l56.336-82.74-127.28-127.28-82.168 57.032a349.796 349.796 0 0 0-51.82-21.492L602-48h-180l-17.468 96.708a349.8 349.8 0 0 0-53.572 22.208L270.76 16.304l-127.28 127.28 55.292 79.664a349.768 349.768 0 0 0-22.564 54.868L82 296v180l95.272 17.212a349.816 349.816 0 0 0 21.496 51.54L143.476 624.416l127.28 127.28L350.96 697.08a349.8 349.8 0 0 0 53.572 22.208L422 816h180zM512 544c-88.364 0-160-71.636-160-160s71.636-160 160-160 160 71.636 160 160-71.636 160-160 160z"  horiz-adv-x="1024" />

    
    <glyph glyph-name="menu" unicode="&#59018;" d="M864 192v-80H160v80h704z m0 232v-80H160v80h704z m0 232v-80H160V656h704z"  horiz-adv-x="1024" />

    
    <glyph glyph-name="error-circle" unicode="&#59010;" d="M512 816c238.588 0 432-193.412 432-432s-193.412-432-432-432S80 145.412 80 384 273.412 816 512 816z m0-80c-194.404 0-352-157.596-352-352s157.596-352 352-352 352 157.596 352 352-157.596 352-352 352z m120-175.432L688.568 504l-120-120 120-120L632 207.432l-120 120-120-120L335.432 264l119.996 120-120 120L392 560.568l120-119.996 120 120z"  horiz-adv-x="1024" />

    
    <glyph glyph-name="error-circle-fill" unicode="&#59011;" d="M512 816c238.588 0 432-193.412 432-432s-193.412-432-432-432S80 145.412 80 384 273.412 816 512 816z m120-255.432l-120-119.996-120 120L335.432 504l119.996-120-120-120L392 207.432l120 120 120-120L688.568 264l-120 120 120 120L632 560.568z"  horiz-adv-x="1024" />

    
    <glyph glyph-name="info-circle-fill" unicode="&#59008;" d="M512 816c238.588 0 432-193.412 432-432s-193.412-432-432-432S80 145.412 80 384 273.412 816 512 816z m40-392h-80v-240h80v240z m0 160h-80v-80h80V584z"  horiz-adv-x="1024" />

    
    <glyph glyph-name="info-circle" unicode="&#59009;" d="M512 816c238.588 0 432-193.412 432-432s-193.412-432-432-432S80 145.412 80 384 273.412 816 512 816z m0-80c-194.404 0-352-157.596-352-352s157.596-352 352-352 352 157.596 352 352-157.596 352-352 352z m40-312v-240h-80v240h80z m0 160v-80h-80V584h80z"  horiz-adv-x="1024" />

    
    <glyph glyph-name="warning-circle" unicode="&#59012;" d="M512 816c238.588 0 432-193.412 432-432s-193.412-432-432-432S80 145.412 80 384 273.412 816 512 816z m0-80c-194.404 0-352-157.596-352-352s157.596-352 352-352 352 157.596 352 352-157.596 352-352 352z m40-472v-80h-80v80h80z m0 320v-240h-80V584h80z"  horiz-adv-x="1024" />

    
    <glyph glyph-name="question-circle-fill" unicode="&#59013;" d="M512 816c238.588 0 432-193.412 432-432s-193.412-432-432-432S80 145.412 80 384 273.412 816 512 816z m40-592h-80v-80h80v80zM512 664c-91.856 0-166.492-73.72-167.976-165.22L344 496h80l0.012 1.456C424.788 545.384 463.88 584 512 584c48.6 0 88-39.4 88-88 0-26.612-30.548-57.712-99.868-89.464l-4.48-2.028-23.652-10.592V304h80v38.708l1.76 0.888 4.872 2.504C637.472 387.18 680 436.18 680 496c0 92.784-75.216 168-168 168z"  horiz-adv-x="1024" />

    
    <glyph glyph-name="question-circle" unicode="&#59014;" d="M512 816c238.588 0 432-193.412 432-432s-193.412-432-432-432S80 145.412 80 384 273.412 816 512 816z m0-80c-194.404 0-352-157.596-352-352s157.596-352 352-352 352 157.596 352 352-157.596 352-352 352z m40-512v-80h-80v80h80zM512 664c92.784 0 168-75.216 168-168 0-61.04-44.28-110.816-126.24-152.404l-1.76-0.888V304h-80v89.92l23.656 10.588C568.136 436.96 600 468.82 600 496c0 48.6-39.4 88-88 88-48.116 0-87.212-38.616-87.988-86.544L424 496H344c0 92.784 75.216 168 168 168z"  horiz-adv-x="1024" />

    
    <glyph glyph-name="warning-fill" unicode="&#59015;" d="M512 816l432-864H80L512 816z m40-640h-80v-80h80v80z m0 320h-80v-240h80v240z"  horiz-adv-x="1024" />

    
    <glyph glyph-name="warning" unicode="&#59016;" d="M512 816l432-864H80L512 816z m0-178.884L209.44 32h605.116L512 637.116zM552 176v-80h-80v80h80z m0 320v-240h-80v240h80z"  horiz-adv-x="1024" />

    
    <glyph glyph-name="warning-circle-fill" unicode="&#59017;" d="M512 816c238.588 0 432-193.412 432-432s-193.412-432-432-432S80 145.412 80 384 273.412 816 512 816z m40-552h-80v-80h80v80z m0 320h-80v-240h80V584z"  horiz-adv-x="1024" />

    
    <glyph glyph-name="align-justify" unicode="&#59004;" d="M864 112v-80h-312v80h312z m-392 0v-80H160v80h312z m392 208v-80H160v80h704z m0 208v-80h-312V528h312z m-392 0v-80H160V528h312z m392 208v-80H160V736h704z"  horiz-adv-x="1024" />

    
    <glyph glyph-name="align-center" unicode="&#59005;" d="M688 112v-80H336v80h352z m176 208v-80H160v80h704z m-176 208v-80H336V528h352z m176 208v-80H160V736h704z"  horiz-adv-x="1024" />

    
    <glyph glyph-name="align-right" unicode="&#59006;" d="M864 112v-80h-352v80h352z m0 208v-80H160v80h704z m0 208v-80h-352V528h352z m0 208v-80H160V736h704z"  horiz-adv-x="1024" />

    
    <glyph glyph-name="align-left" unicode="&#59007;" d="M512 112v-80H160v80h352z m352 208v-80H160v80h704z m-352 208v-80H160V528h352z m352 208v-80H160V736h704z"  horiz-adv-x="1024" />

    
    <glyph glyph-name="copy-fill" unicode="&#58999;" d="M864 656v-704H292v80h492V656h80z m-120 160v-744H160V653.04L322.5 816H744z m-160-464H320v-80h264v80z m0 160H320v-80h264V512z"  horiz-adv-x="1024" />

    
    <glyph glyph-name="search" unicode="&#59000;" d="M400 816c176.732 0 320-143.268 320-320 0-73.948-25.08-142.04-67.204-196.224L944.568 8 888-48.568 596.224 243.2C542.04 201.084 473.948 176 400 176c-176.732 0-320 143.268-320 320s143.268 320 320 320z m0-80c-132.548 0-240-107.452-240-240s107.452-240 240-240 240 107.452 240 240-107.452 240-240 240z"  horiz-adv-x="1024" />

    
    <glyph glyph-name="paste" unicode="&#59001;" d="M864 616v-664H280V453.04L442.5 616H864z m-80-80h-308.296L360 419.972V32h424V536z m-119.28 280l40-80H864v-80h-208.72l-40.004 80H424.72l-40-80H240v-624H160V736h175.276l40 80h289.444zM704 234v-80h-264v80h264z m0 160v-80h-264v80h264z"  horiz-adv-x="1024" />

    
    <glyph glyph-name="paste-fill" unicode="&#59002;" d="M864 616v-664H280V453.04L442.5 616H864z m-199.28 200l40-80H864v-80h-208.72l-40.004 80H424.72l-40-80H240v-624H160V736h175.276l40 80h289.444zM704 234h-264v-80h264v80z m0 160h-264v-80h264v80z"  horiz-adv-x="1024" />

    
    <glyph glyph-name="copy" unicode="&#59003;" d="M864 656v-704H292v80h492V656h80z m-120 160v-744H160V653.04L322.5 816H744z m-80-80H355.704L240 619.972V152h424V736z m-80-384v-80H320v80h264z m0 160v-80H320V512h264z"  horiz-adv-x="1024" />

    
    <glyph glyph-name="smile" unicode="&#58996;" d="M791.232 334.94l65.536-45.88C774.564 171.624 658.296 112 512 112c-144.832 0-260.236 58.44-342.292 173.556l-2.48 3.504 65.54 45.88C299.896 239.04 391.628 192 512 192c119.168 0 210.264 46.104 277.208 140.08l2.024 2.86zM714 656v-240h-80V656h80z m-320 0v-240h-80V656h80z"  horiz-adv-x="1024" />

    
    <glyph glyph-name="calm" unicode="&#58997;" d="M712 234v-80H312v80h400z m2 422v-240h-80V656h80z m-320 0v-240h-80V656h80z"  horiz-adv-x="1024" />

    
    <glyph glyph-name="sad" unicode="&#58998;" d="M512 294.94c144.832 0 260.236-58.44 342.292-173.56l2.48-3.504L791.228 72l-2.024 2.864c-66.944 93.968-158.04 140.076-277.208 140.076-119.168 0-210.264-46.108-277.208-140.08l-2.024-2.86-65.536 45.88 2.476 3.504C251.76 236.5 367.168 294.94 512 294.94zM714 656v-240h-80V656h80z m-320 0v-240h-80V656h80z"  horiz-adv-x="1024" />

    
    <glyph glyph-name="code" unicode="&#58993;" d="M259.992 608l62.468-49.976-140.016-175.008L322.46 208l-62.468-49.976L80 383.012 259.992 608z m502.48 0l179.988-224.988-179.992-224.988L700 208l140.016 175.016L700 558.024 762.468 608z m-185.112-30.796l69.28-40-200-346.408-69.28 40 200 346.408z"  horiz-adv-x="1024" />

    
    <glyph glyph-name="shirt-fill" unicode="&#58994;" d="M387.644 743.656l23.18-12.36c61.872-33 135.888-33.728 198.156-2.184l2.12 1.088 25.368 13.368 108.624-86.456 200.76-148.384L857.804 320H752v-288H272v288H165.972L77.92 508.728l203.948 150.744L387.64 743.656zM752 552.536V400h54.852l38.852 83.276L752 552.532z m-480 0.164L178.072 483.28 216.924 400H272V552.7z"  horiz-adv-x="1024" />

    
    <glyph glyph-name="shirt" unicode="&#58995;" d="M387.644 743.656l23.18-12.36c61.872-33 135.888-33.728 198.156-2.184l2.12 1.088 25.368 13.368 108.624-86.456 200.76-148.384L857.804 320H752v-288H272v288H165.972L77.92 508.728l203.948 150.744L387.64 743.656z m238.956-94.48l-2.056-0.868a295.04 295.04 0 0 0-222.524-1.04l-2.608 1.06-2.02 0.848L352 613.044V112h320V613.04l-45.4 36.136zM752 552.536V400h54.852l38.852 83.276L752 552.532z m-480 0.164L178.072 483.28 216.924 400H272V552.7z"  horiz-adv-x="1024" />

    
    <glyph glyph-name="earth" unicode="&#58991;" d="M512 816c238.588 0 432-193.412 432-432s-193.412-432-432-432S80 145.412 80 384 273.412 816 512 816z m-1.456-765.26l-32.652-13.06-3.88-3.656a355.96 355.96 0 0 1 61.66-1.24l-25.128 17.956zM512 736c-7.852 0-15.64-0.256-23.364-0.76l1.112-0.716-28-44-49.108 31.256a350.652 350.652 0 0 1-105.856-51.76l23.424-144.412-56.872-75.828L222.876 364l-62.32-0.004a352.04 352.04 0 0 1 7.576-55.576l30.488 33.528L284 256.568v-60.756l36.736-56.776 61.86-81.192 51.508 48.48 87.348 34.94 78.836-56.312 25.588-34.124A350.3 350.3 0 0 1 692 81.44l-0.004 29.832-20.72 10.36-44.492 77.86 79.76 33.236 9.452 12.6v9.908l-56-20V272h-66.84l-93.2-24.528-47.96 47.96v59.236l-44.68 59.576 49.46 76.94 22.312 49.08L532.792 588h72.16L620 645.18V719.12A351.76 351.76 0 0 1 512 736z m188.004-54.36L700 634.824l-24.068-91.46-35.36-35.364H563.2l-18.3-16.268-17.688-38.92-22.536-35.052 27.32-36.428v-42.704L582.824 352H740v-3.236l56 19.996v-150.092l-38.152-50.868 14.152-7.08v-14.008c57.144 62.58 92 145.864 92 237.288 0 125.272-65.44 235.256-163.996 297.64zM201.376 226.052l-2.588-2.844c1.688-3.28 3.424-6.532 5.212-9.748v9.968l-2.624 2.624zM165.096 444h12.02l29.54 50.208 39.132 52.18-9.22 56.82C200.472 557.908 175.312 503.508 165.092 444z"  horiz-adv-x="1024" />

    
    <glyph glyph-name="earth-fill" unicode="&#58992;" d="M512 816c238.588 0 432-193.412 432-432s-193.412-432-432-432S80 145.412 80 384 273.412 816 512 816z m0-80c-7.852 0-15.64-0.256-23.364-0.76l1.112-0.716-28-44-49.108 31.256a350.652 350.652 0 0 1-105.856-51.76l23.424-144.412-56.872-75.828L222.876 364l-62.32-0.004a352.04 352.04 0 0 1 7.576-55.576l30.488 33.528L284 256.568v-60.756l36.736-56.776 61.86-81.192 51.508 48.48 87.348 34.94 78.836-56.312 25.588-34.124A350.3 350.3 0 0 1 692 81.44l-0.004 29.832-20.72 10.36-44.492 77.86 79.76 33.236 9.452 12.6v9.908l-56-20V272h-66.84l-93.2-24.528-47.96 47.96v59.236l-44.68 59.576 49.46 76.94 22.312 49.08L532.792 588h72.16L620 645.18V719.12A351.76 351.76 0 0 1 512 736z"  horiz-adv-x="1024" />

    
    <glyph glyph-name="document" unicode="&#58989;" d="M864 816v-864H160V616l200 200h504z m-80-80H393.136L240 582.864V32h544V736z m-80-544v-80H320v80h384z m0 160v-80H320v80h384z m0 160v-80H320V512h384z"  horiz-adv-x="1024" />

    
    <glyph glyph-name="document-fill" unicode="&#58990;" d="M864 816v-864H160V616l200 200h504z m-160-624H320v-80h384v80z m0 160H320v-80h384v80z m0 160H320v-80h384V512z"  horiz-adv-x="1024" />

    
    <glyph glyph-name="dots" unicode="&#58987;" d="M512 464c44.184 0 80-35.816 80-80s-35.816-80-80-80-80 35.816-80 80 35.816 80 80 80z m-352 0c44.184 0 80-35.816 80-80s-35.816-80-80-80-80 35.816-80 80 35.816 80 80 80z m704 0c44.184 0 80-35.816 80-80s-35.816-80-80-80-80 35.816-80 80 35.816 80 80 80z"  horiz-adv-x="1024" />

    
    <glyph glyph-name="dot" unicode="&#58988;" d="M512 384m-80 0a80 80 0 1 1 160 0 80 80 0 1 1-160 0Z"  horiz-adv-x="1024" />

    
    <glyph glyph-name="forbidden" unicode="&#58986;" d="M512 816c238.588 0 432-193.412 432-432s-193.412-432-432-432S80 145.412 80 384 273.412 816 512 816z m276.2-213.764L293.768 107.796C353.76 60.336 429.568 32 512 32c194.404 0 352 157.596 352 352 0 82.432-28.336 158.248-75.8 218.236zM512 736c-194.404 0-352-157.596-352-352 0-83.148 28.828-159.56 77.04-219.792L731.792 658.96C671.564 707.172 595.148 736 512 736z"  horiz-adv-x="1024" />

    
    <glyph glyph-name="draggable" unicode="&#58985;" d="M432 64v-80H352v80h80z m240 0v-80h-80v80h80z m-240 240v-80H352v80h80z m240 0v-80h-80v80h80z m-240 240v-80H352V544h80z m240 0v-80h-80V544h80z m-240 240v-80H352V784h80z m240 0v-80h-80V784h80z"  horiz-adv-x="1024" />

    
    <glyph glyph-name="lock-fill" unicode="&#58979;" d="M704 736v-264h160v-520H160V472h164V736h380z m-150-444h-80v-160h80v160zM624 656h-220v-184h220V656z"  horiz-adv-x="1024" />

    
    <glyph glyph-name="unlock" unicode="&#58980;" d="M324 816h380v-264h-80V736h-220v-264h460v-520H160V472h164V816z m460-424H240v-360h544v360z m-230-100v-160h-80v160h80z"  horiz-adv-x="1024" />

    
    <glyph glyph-name="lock" unicode="&#58981;" d="M704 736v-264h160v-520H160V472h164V736h380z m80-344H240v-360h544v360z m-230-100v-160h-80v160h80zM624 656h-220v-184h220V656z"  horiz-adv-x="1024" />

    
    <glyph glyph-name="user-fill" unicode="&#58982;" d="M512 808c132.548 0 240-107.452 240-240 0-78.036-37.24-147.372-94.924-191.204C779.108 321.532 864 198.68 864 56v-104H160v104c0 142.68 84.892 265.532 206.92 320.804C309.24 420.628 272 489.964 272 568c0 132.548 107.452 240 240 240z"  horiz-adv-x="1024" />

    
    <glyph glyph-name="unlock-fill" unicode="&#58983;" d="M324 816h380v-264h-80V736h-220v-264h460v-520H160V472h164V816z m230-524h-80v-160h80v160z"  horiz-adv-x="1024" />

    
    <glyph glyph-name="user" unicode="&#58984;" d="M512 808c132.548 0 240-107.452 240-240 0-78.036-37.24-147.372-94.924-191.204C779.108 321.532 864 198.68 864 56v-104H160v104c0 142.68 84.892 265.532 206.92 320.804C309.24 420.628 272 489.964 272 568c0 132.548 107.452 240 240 240z m0-480c-148.72 0-269.56-119.356-271.96-267.5L240 56v-24h544v24c0 148.72-119.356 269.56-267.5 271.96L512 328z m0 400c-88.364 0-160-71.636-160-160s71.636-160 160-160 160 71.636 160 160-71.636 160-160 160z"  horiz-adv-x="1024" />

    
    <glyph glyph-name="open" unicode="&#58978;" d="M424 816v-80H160v-704h704v264h80v-344H80V816h344z m520 0v-400h-80V682.044l-327.776-326.388-56.448 56.688L804.804 736H544V816h400z"  horiz-adv-x="1024" />

    
    <glyph glyph-name="close1" unicode="&#58976;" d="M864.568 792l56.568-56.568-352-352 352-352-56.568-56.568-352 352-352-352L104 31.432l352 352-352 352L160.568 792l352-352z"  horiz-adv-x="1024" />

    
    <glyph glyph-name="correct" unicode="&#58977;" d="M888 688.568L944.568 632 388 75.432 79.432 384 136 440.568l252-252z"  horiz-adv-x="1024" />

    
    <glyph glyph-name="upload" unicode="&#58975;" d="M160 280v-248h704v248h80v-328H80v328h80z m394-207.128V660.856l212.56-212.552 56.568 56.568L512 816 200.872 504.872l56.568-56.568 216.56 216.56v-591.992h80z"  horiz-adv-x="1024" />

    
    <glyph glyph-name="download" unicode="&#58974;" d="M160 280v-248h704v248h80v-328H80v328h80z m394 536v-587.984l212.56 212.552L823.128 384 512 72.872 200.872 384l56.568 56.568 216.56-216.56V816h80z"  horiz-adv-x="1024" />

    
    <glyph glyph-name="waiting" unicode="&#58973;" d="M556 192v-240h-80v240h80z m-204.048 84.52l56.568-56.568-169.704-169.708-56.572 56.572 169.708 169.704z m328.096 0l169.708-169.704-56.572-56.572-169.704 169.708 56.568 56.568zM948 424v-80h-240v80h240z m-624 0v-80H84v80h240z m469.184 293.756l56.572-56.572-169.708-169.704-56.568 56.568 169.704 169.708z m-554.368 0l169.704-169.708-56.568-56.568L182.24 661.184 238.816 717.76zM556 816v-240h-80V816h80z"  horiz-adv-x="1024" />

    
    <glyph glyph-name="loading" unicode="&#58972;" d="M512-48c-238.588 0-432 193.412-432 432C80 620.2 269.564 812.128 504.856 815.944L512 816v-80c-194.404 0-352-157.596-352-352s157.596-352 352-352c192.46 0 348.844 154.46 351.952 346.18L864 384h80c0-238.588-193.412-432-432-432z"  horiz-adv-x="1024" />

    
    <glyph glyph-name="up" unicode="&#58956;" d="M938.712 197.856l-56.568-56.568-371.72 371.712-371.712-371.712-56.568 56.568 428.28 428.288z"  horiz-adv-x="1024" />

    
    <glyph glyph-name="down" unicode="&#58957;" d="M938.712 569.572l-56.568 56.572-371.72-371.716-371.712 371.716-56.568-56.572 428.28-428.28z"  horiz-adv-x="1024" />

    
    <glyph glyph-name="left" unicode="&#58958;" d="M696.284 812l56.568-56.568-371.712-371.72L752.852 12l-56.568-56.568L268 383.712z"  horiz-adv-x="1024" />

    
    <glyph glyph-name="right" unicode="&#58959;" d="M324.568 812L268 755.432l371.712-371.72L268 12l56.568-56.568 428.284 428.28z"  horiz-adv-x="1024" />

    
    <glyph glyph-name="plus" unicode="&#58960;" d="M552 816v-392h392v-80h-392v-392h-80v392H80v80h392V816z"  horiz-adv-x="1024" />

    
    <glyph glyph-name="close" unicode="&#58961;" d="M864.568 792l56.568-56.568-352-352 352-352-56.568-56.568-352 352-352-352L104 31.432l352 352-352 352L160.568 792l352-352z"  horiz-adv-x="1024" />

    
    <glyph glyph-name="star" unicode="&#58963;" d="M513.88 816L660 565.12 943.76 503.68l-193.444-216.496 29.244-288.856-265.68 117.076-265.68-117.076 29.248 288.856L84 503.676 367.756 565.12 513.876 816z m94.736-321.604l-94.74 162.656-94.736-162.656-183.972-39.836 125.42-140.368-18.96-187.272 172.248 75.904 172.248-75.904-18.96 187.272 125.416 140.368-183.964 39.836z"  horiz-adv-x="1024" />

    
    <glyph glyph-name="star-fill" unicode="&#58964;" d="M513.88 816L660 565.12 943.76 503.68l-193.444-216.496 29.244-288.856-265.68 117.076-265.68-117.076 29.248 288.856L84 503.676 367.756 565.12z"  horiz-adv-x="1024" />

    
    <glyph glyph-name="image" unicode="&#58965;" d="M944 736v-704H80V736h864z m-80-80H160v-544h704V656z m-217.272-224L824 352v-200H200l446.728 280zM320 576c44.184 0 80-35.816 80-80s-35.816-80-80-80-80 35.816-80 80 35.816 80 80 80z"  horiz-adv-x="1024" />

    
    <glyph glyph-name="image-fill" unicode="&#58966;" d="M944 736v-704H80V736h864z m-280-344L160 112h704v200l-200 80zM320 576c-44.184 0-80-35.816-80-80s35.816-80 80-80 80 35.816 80 80-35.816 80-80 80z"  horiz-adv-x="1024" />

    
    <glyph glyph-name="trash" unicode="&#58967;" d="M240 616v-584h544V616h80v-664H160V616h80z m314-40v-504h-80V576h80zM392 576v-504H312V576h80z m324 0v-504h-80V576h80z m-40 240v-80h268v-80h-348V736h-164v-80H80V736h272V816h324z"  horiz-adv-x="1024" />

    
    <glyph glyph-name="trash-fill" unicode="&#58968;" d="M676 816v-80h268v-80h-80v-704H160V656H80V736h272V816h324z m-122-240h-80v-504h80V576zM392 576H312v-504h80V576z m324 0h-80v-504h80V576z"  horiz-adv-x="1024" />

    
    <glyph glyph-name="folder" unicode="&#58969;" d="M400 816l80-80h464v-704H80V816h320z m-33.14-80H160v-624h704V656H446.864L366.86 736z m457.364-200v-80H199.776V536h624.448z"  horiz-adv-x="1024" />

    
    <glyph glyph-name="folder-fill" unicode="&#58970;" d="M400 816l80-80h464v-704H80V816h320z m464-280H160v-80h704V536z"  horiz-adv-x="1024" />

    
    <glyph glyph-name="link" unicode="&#58971;" d="M364.284 462.56l56.564-56.568-226.268-226.28 113.136-113.132 226.268 226.276 56.576-56.572-282.844-282.84-226.276 226.272 282.844 282.84zM659.72 588.28L716.28 531.72l-352-352L307.72 236.28l352 352zM716.28 814.56L942.56 588.28l-282.844-282.84-56.572 56.572 226.28 226.268-113.14 113.136-226.276-226.268-56.568 56.56 282.844 282.848z"  horiz-adv-x="1024" />

    


  </font>
</defs>
</svg>
